# xmcd
#
# Track frame offsets: 
#        150
#        13910
#        27790
#        45000
#        57950
#        73210
#        86230
#        99785
#        113005
#        127435
#        144275
#        161005
#
# Disc length: 2319 seconds
#
# Revision: 2
# Processed by: cddbd v1.5.1PL0 Copyright (c) Steve Scherf et al.
# Submitted via: ExactAudioCopy v0.95a5
#
DISCID=9d090d0c
DTITLE=Lourenco and Lourival - Velha Porteira (Tony Sorriso)
DYEAR=2004
DGENRE=Country
TTITLE0=A Camisinha
TTITLE1=Colarinho Branco
TTITLE2=Velha Porteira
TTITLE3=A Fazendinha
TTITLE4=Sonho de Cores
TTITLE5=Paixao e Ressaca
TTITLE6=Bailinho do Sertao
TTITLE7=Ponta de Espada
TTITLE8=Anel de Noivado
TTITLE9=Chorando Outra Vez
TTITLE10=Filhos da Bahia
TTITLE11=Casa Modesta
EXTD=
EXTT0=
EXTT1=
EXTT2=
EXTT3=
EXTT4=
EXTT5=
EXTT6=
EXTT7=
EXTT8=
EXTT9=
EXTT10=
EXTT11=
PLAYORDER=
